HIERARCHY
ROOT Hips
{
	OFFSET -3.958830 18.904000 13.208200
	CHANNELS 6 Xposition Yposition Zposition Zrotation Yrotation Xrotation 
	JOINT LHipJoint
	{
		OFFSET 0.000000 0.000000 0.000000
		CHANNELS 3 Zrotation Yrotation Xrotation
		JOINT LeftUpLeg
		{
			OFFSET 1.800000 -1.400000 0.085000
			CHANNELS 3 Zrotation Yrotation Xrotation
			JOINT LeftLeg
			{
				OFFSET 2.215000 -6.000000 0.000000
				CHANNELS 3 Zrotation Yrotation Xrotation
				JOINT LeftFoot
				{
					OFFSET 2.500000 -6.900000 0.000000
					CHANNELS 3 Zrotation Yrotation Xrotation
					JOINT LeftToeBase
					{
						OFFSET 0.200000 -0.500000 1.950000
						CHANNELS 3 Zrotation Yrotation Xrotation
						End Site
						{
							OFFSET 0.000000 0.000000 0.000000
						}
					}
				}
			}
		}
	}
	JOINT RHipJoint
	{
		OFFSET 0.000000 0.000000 0.000000
		CHANNELS 3 Zrotation Yrotation Xrotation
		JOINT RightUpLeg
		{
			OFFSET -1.800000 -1.400000 0.085000
			CHANNELS 3 Zrotation Yrotation Xrotation
			JOINT RightLeg
			{
				OFFSET -2.215000 -6.000000 0.000000
				CHANNELS 3 Zrotation Yrotation Xrotation
				JOINT RightFoot
				{
					OFFSET -2.500000 -6.900000 0.000000
					CHANNELS 3 Zrotation Yrotation Xrotation
					JOINT RightToeBase
					{
						OFFSET -0.200000 -0.500000 1.950000
						CHANNELS 3 Zrotation Yrotation Xrotation
						End Site
						{
							OFFSET 0.000000 0.000000 0.000000
						}
					}
				}
			}
		}
	}
	JOINT LowerBack
	{
		OFFSET 0.000000 0.000000 0.000000
		CHANNELS 3 Zrotation Yrotation Xrotation
		JOINT Spine
		{
			OFFSET -0.087000 1.940000 -0.288900
			CHANNELS 3 Zrotation Yrotation Xrotation
			JOINT Spine1
			{
				OFFSET 0.000000 1.950000 0.060000
				CHANNELS 3 Zrotation Yrotation Xrotation
				JOINT Neck
				{
					OFFSET 0.000000 0.000000 0.000000
					CHANNELS 3 Zrotation Yrotation Xrotation
					JOINT Neck1
					{
						OFFSET 0.000000 1.600000 0.340000
						CHANNELS 3 Zrotation Yrotation Xrotation
						JOINT Head
						{
							OFFSET 0.000000 1.667000 -0.240000
							CHANNELS 3 Zrotation Yrotation Xrotation
							End Site
							{
								OFFSET 0.000000 0.000000 0.000000
							}
						}
					}
				}
				JOINT LeftShoulder
				{
					OFFSET 0.000000 0.000000 0.000000
					CHANNELS 3 Zrotation Yrotation Xrotation
					JOINT LeftArm
					{
						OFFSET 2.700000 1.550000 -0.730000
						CHANNELS 3 Zrotation Yrotation Xrotation
						JOINT LeftForeArm
						{
							OFFSET 5.450000 0.000000 0.000000
							CHANNELS 3 Zrotation Yrotation Xrotation
							JOINT LeftHand
							{
								OFFSET 3.450000 0.000000 0.000000
								CHANNELS 3 Zrotation Yrotation Xrotation
								JOINT LeftHandIndex1
								{
									OFFSET 0.750000 0.000000 0.000000
									CHANNELS 3 Zrotation Yrotation Xrotation
									End Site
									{
										OFFSET 0.000000 0.000000 0.000000
									}
								}
							}
						}
					}
				}
				JOINT RightShoulder
				{
					OFFSET 0.000000 0.000000 0.000000
					CHANNELS 3 Zrotation Yrotation Xrotation
					JOINT RightArm
					{
						OFFSET -2.700000 1.550000 -0.730000
						CHANNELS 3 Zrotation Yrotation Xrotation
						JOINT RightForeArm
						{
							OFFSET -5.450000 0.000000 0.000000
							CHANNELS 3 Zrotation Yrotation Xrotation
							JOINT RightHand
							{
								OFFSET -3.450000 0.000000 0.000000
								CHANNELS 3 Zrotation Yrotation Xrotation
								JOINT RightHandIndex1
								{
									OFFSET -0.750000 0.000000 0.000000
									CHANNELS 3 Zrotation Yrotation Xrotation
									End Site
									{
										OFFSET 0.000000 0.000000 0.000000
									}
								}
							}
						}
					}
				}
			}
		}
	}
}
MOTION
Frames: 9
Frame Time: 0.016667
0.239540 17.901450 -5.749150 -8.377695 3.252911 2.067411 -14.952836 13.216446 2.289548 0.387491 -1.436581 -15.284594 6.255337 4.619764 35.829147 -0.589228 5.545919 2.335328 0.979490 0.636120 0.977110 18.564696 -9.388597 5.530940 -0.297235 14.407793 -46.171521 7.262621 -6.272904 33.557903 -0.711249 -3.570001 2.798230 0.356690 -0.396430 0.291390 -4.321338 -1.796979 -8.585033 22.260898 -6.776706 33.932579 -6.896018 -0.363380 13.599545 5.009719 1.702592 -15.418747 0.119507 0.390740 52.813431 -0.025980 3.319820 -32.788320 -27.514643 -35.968412 11.420894 -47.547646 -36.816340 -0.881688 -41.675489 -65.408637 19.221645 -2.960534 3.418731 1.056680 -0.381850 0.541310 0.068020 17.236067 36.789306 7.226616 48.057137 38.192600 -5.591839 40.891858 49.921033 11.947071 1.943953 -1.549121 -0.063050 0.204250 -0.199790 -0.439850 
0.257480 17.797060 -5.831750 -7.556790 2.914713 2.152332 -14.994242 13.463934 2.258129 0.294825 -0.348307 -12.135837 4.986094 4.732958 30.284653 -0.654005 4.853088 2.618951 0.981210 0.636680 0.986230 18.477252 -9.443015 5.420901 0.126183 13.832580 -44.568053 7.518078 -4.510626 24.290892 -0.478600 -2.123895 3.313137 0.339130 -0.402680 0.308160 -4.146490 -2.078246 -8.526732 20.396710 -5.828358 33.583447 -5.274286 -0.425370 14.138281 4.561238 1.442973 -15.510262 -0.343866 0.831417 52.051678 -0.827910 3.717160 -33.251710 -27.479225 -36.145298 11.343732 -47.899581 -37.071454 -0.733483 -42.361679 -63.698725 18.960929 -2.964051 3.427640 1.040680 -0.379420 0.548120 0.069800 18.216900 37.101622 7.818846 47.556712 37.930201 -5.659016 38.514649 50.655510 11.529393 1.923913 -1.554950 -0.038550 0.183080 -0.211130 -0.431760 
0.271730 17.697230 -5.928600 -6.293760 2.729159 2.137504 -15.103119 13.642324 2.397325 -0.221330 -0.126116 -10.415949 3.226790 5.038292 27.213457 -0.663324 4.599243 2.737077 0.945630 0.602140 0.985480 18.342731 -9.371699 5.251603 0.581860 12.688987 -43.634222 7.270150 -3.379205 17.059230 -0.334741 -1.243102 3.643355 0.318510 -0.403230 0.295530 -3.803906 -2.600725 -8.585142 17.033070 -4.981172 34.214398 -3.561378 -0.536589 13.814316 4.118583 2.184848 -15.955677 1.127598 0.876743 52.404366 -1.705630 4.887020 -32.673830 -27.217484 -36.985612 11.666909 -46.194881 -37.627983 -0.771376 -43.899768 -63.618940 20.185902 -2.927805 3.447118 1.031830 -0.367120 0.541800 0.057790 18.843498 37.531441 7.921938 46.719658 37.629536 -5.708676 40.138990 50.990112 12.395026 1.941204 -1.550432 -0.054160 0.177420 -0.210030 -0.443450 
0.280230 17.637270 -6.031130 -5.373311 2.156197 1.571112 -15.195069 13.793529 2.499333 -0.508228 -0.066767 -10.001834 1.920111 5.512454 26.890003 -0.612092 4.686690 2.718955 0.918840 0.563090 0.973190 18.240078 -9.256392 5.133110 1.345811 12.158377 -42.234235 7.004226 -2.602795 11.602943 -0.276971 -0.751199 3.840895 0.278050 -0.398420 0.302700 -3.517706 -3.112885 -8.640225 14.585391 -4.532151 36.384035 -2.606517 -0.351168 12.583544 3.736528 1.927327 -16.301197 0.306031 1.477754 53.017813 -1.319720 5.228300 -33.472040 -27.414702 -37.377240 11.444714 -44.036086 -37.392655 -0.944268 -47.758690 -63.684017 22.986711 -2.895301 3.469117 1.052550 -0.379260 0.551730 0.054730 19.821679 38.232295 8.212087 44.989063 37.134656 -5.875056 42.220129 52.113570 13.956412 1.947889 -1.527465 -0.053260 0.176000 -0.200370 -0.440590 
0.290020 17.600330 -6.119990 -4.858679 1.768530 1.343614 -15.255039 13.848457 2.541385 -0.772437 -0.151313 -11.136374 1.219057 6.081975 28.703631 -0.551527 4.974521 2.622290 0.862400 0.504940 0.937800 18.190639 -9.111682 5.130275 2.215420 12.347881 -41.573106 6.477807 -2.110169 8.409533 -0.228579 -0.510241 3.958258 0.240500 -0.370950 0.284630 -3.352520 -3.444790 -8.698723 13.078907 -4.408949 38.028954 -2.197363 -0.262709 11.382196 3.607251 1.649591 -16.509185 -0.420813 1.897776 52.777875 -1.405250 5.207790 -33.568850 -27.934145 -37.611745 10.830351 -42.569861 -36.520068 -1.316311 -51.631237 -61.916946 24.664604 -2.944577 3.411468 1.051880 -0.372610 0.533580 0.042640 20.614287 38.689983 8.827267 43.633930 36.438921 -6.349278 43.590048 55.323045 15.893682 1.924428 -1.515066 -0.074400 0.199470 -0.173380 -0.435140 
0.335220 17.595070 -6.183640 -4.971237 0.310457 1.480893 -15.251475 13.785061 2.555266 -1.427425 -0.230216 -12.487047 1.356378 6.273291 30.345604 -0.534963 5.155472 2.551413 0.835740 0.468520 0.929380 18.214091 -9.022798 5.201979 3.337419 12.980248 -41.159267 6.970245 -1.908858 6.740640 -0.217821 -0.421019 3.999150 0.220320 -0.367050 0.276090 -3.367855 -3.450665 -8.741460 13.363120 -4.382261 38.933070 -2.549599 0.227234 10.445164 3.695639 1.062232 -16.564019 -1.778882 2.412669 53.001714 -1.685160 5.108770 -34.205530 -28.333256 -37.228612 10.329935 -43.306656 -35.524920 -1.567589 -53.649291 -60.620297 24.908372 -2.997633 3.345729 1.075960 -0.381870 0.534660 0.030090 20.849075 38.843246 9.191548 44.062175 35.573811 -6.958597 44.093103 55.404529 15.958855 1.921749 -1.491639 -0.093090 0.218530 -0.153280 -0.442350 
0.376170 17.628310 -6.220960 -4.645827 -0.470632 1.478789 -15.274961 13.805999 2.635381 -2.137378 -0.334660 -12.855844 0.938917 6.397173 30.594971 -0.511581 5.177679 2.532597 0.853470 0.480600 0.951880 18.192452 -8.981768 5.155663 4.361197 12.858275 -40.215279 6.937346 -1.857099 6.081920 -0.235493 -0.374905 4.009170 0.215220 -0.400300 0.278100 -3.292609 -3.625249 -8.769191 13.147139 -4.238675 39.708945 -2.255032 0.565505 9.491040 3.789608 0.375770 -16.778842 -3.601509 2.826640 54.350562 -1.762030 4.671040 -34.764260 -29.035584 -36.854896 10.029187 -44.198147 -34.406982 -2.012913 -53.601034 -58.367752 23.404019 -2.994071 3.311896 1.097890 -0.414580 0.563330 0.025970 21.464711 39.197247 9.333604 43.798580 33.848545 -7.724262 45.148342 52.923591 15.312142 1.958197 -1.470838 -0.076930 0.212600 -0.164570 -0.443580 
0.423620 17.678420 -6.258820 -4.836849 0.035240 2.035475 -15.257774 13.746071 2.684117 -2.581542 -0.651164 -13.533697 0.894798 6.069076 30.031029 -0.552937 5.007376 2.573344 0.893160 0.525630 0.984030 18.217879 -8.979065 5.164436 5.419147 12.785244 -40.552198 6.455666 -2.042230 7.274869 -0.258721 -0.377184 3.995056 0.231140 -0.429730 0.303980 -3.359055 -3.587295 -8.770478 14.440895 -4.954357 39.514607 -2.552097 0.373433 8.306688 4.076311 0.349063 -16.191006 -3.743679 2.725831 55.102210 -2.750680 4.660750 -35.387790 -29.404307 -36.099886 9.557075 -45.293402 -34.023268 -1.475138 -52.717783 -55.528206 21.564936 -3.047356 3.284758 1.107990 -0.420350 0.595130 0.026550 21.230619 38.445738 8.291753 44.692906 32.885611 -7.440705 44.699642 46.385493 12.576157 2.025762 -1.427591 -0.048380 0.197920 -0.177990 -0.447260 
0.460070 17.745000 -6.296850 -4.693937 1.796221 2.862793 -15.278271 13.766642 2.750615 -2.816731 -0.979588 -14.259293 0.664097 5.750936 28.821743 -0.552718 4.739960 2.654445 0.908670 0.561060 0.985130 18.198895 -8.903572 5.187496 5.425570 12.674051 -41.803335 5.735731 -2.325019 10.148454 -0.265903 -0.471410 3.946861 0.234450 -0.450910 0.317480 -3.324295 -3.810378 -8.800223 15.089235 -5.780658 38.864082 -1.948251 -0.348776 7.549065 4.180840 0.353560 -16.434867 -3.943087 2.773548 55.647088 -3.382030 4.674600 -33.434100 -30.195976 -36.329042 9.665909 -45.664969 -33.667475 -1.548312 -51.183088 -52.558183 19.316820 -3.036586 3.325696 1.057840 -0.412170 0.599430 0.029390 21.815870 38.484574 7.956114 43.940820 30.978127 -7.914813 43.819319 42.108546 10.629766 2.065086 -1.447944 -0.001480 0.150570 -0.199900 -0.426730 
